<?xml version="1.0" encoding="UTF-8" standalone="no"?>
<!-- Created with Inkscape (http://www.inkscape.org/) -->

<svg
   xmlns:dc="http://purl.org/dc/elements/1.1/"
   xmlns:cc="http://creativecommons.org/ns#"
   xmlns:rdf="http://www.w3.org/1999/02/22-rdf-syntax-ns#"
   xmlns:svg="http://www.w3.org/2000/svg"
   xmlns="http://www.w3.org/2000/svg"
   xmlns:sodipodi="http://sodipodi.sourceforge.net/DTD/sodipodi-0.dtd"
   xmlns:inkscape="http://www.inkscape.org/namespaces/inkscape"
   width="210mm"
   height="297mm"
   viewBox="0 0 210 297"
   version="1.1"
   id="svg8"
   inkscape:version="0.92.2 (5c3e80d, 2017-08-06)"
   sodipodi:docname="cap_serpent_icon.svg">
  <defs
     id="defs2" />
  <sodipodi:namedview
     id="base"
     pagecolor="#ffffff"
     bordercolor="#666666"
     borderopacity="1.0"
     inkscape:pageopacity="0.0"
     inkscape:pageshadow="2"
     inkscape:zoom="0.49497475"
     inkscape:cx="98.593136"
     inkscape:cy="712.69584"
     inkscape:document-units="mm"
     inkscape:current-layer="layer1"
     showgrid="false"
     inkscape:window-width="1920"
     inkscape:window-height="1001"
     inkscape:window-x="-9"
     inkscape:window-y="-9"
     inkscape:window-maximized="1" />
  <metadata
     id="metadata5">
    <rdf:RDF>
      <cc:Work
         rdf:about="">
        <dc:format>image/svg+xml</dc:format>
        <dc:type
           rdf:resource="http://purl.org/dc/dcmitype/StillImage" />
        <dc:title></dc:title>
      </cc:Work>
    </rdf:RDF>
  </metadata>
  <g
     inkscape:label="Layer 1"
     inkscape:groupmode="layer"
     id="layer1">
    <path
       style="opacity:1;fill:#b3b3b3;fill-opacity:1;fill-rule:evenodd;stroke-width:0.26458332"
       id="path815"
       sodipodi:type="arc"
       sodipodi:cx="106.106"
       sodipodi:cy="150.26903"
       sodipodi:rx="71.360962"
       sodipodi:ry="72.430038"
       sodipodi:start="5.0426925"
       sodipodi:end="4.7522523"
       sodipodi:open="true"
       d="M 129.25051,81.754271 A 71.360962,72.430038 0 0 1 175.11065,168.72789 71.360962,72.430038 0 0 1 92.97355,221.46203 71.360962,72.430038 0 0 1 35.195933,142.13974 71.360962,72.430038 0 0 1 108.94993,77.89653" />
    <path
       style="fill:#ff8080;stroke:#000000;stroke-width:0.26458332px;stroke-linecap:butt;stroke-linejoin:miter;stroke-opacity:1"
       d="M 88.733481,99.220548 C 154.48178,125.41296 156.0854,128.08566 156.0854,128.08566 l -6.41447,56.66114 C 134.1693,195.20116 118.66767,198.30913 103.16604,201.85205 86.170668,193.19274 62.34099,190.31631 62.541068,167.107 l 6.41447,-37.95226 c 10.796351,-7.20648 23.106618,-5.32946 35.279572,-4.27632 l 34.74504,10.15624 -2.67269,34.2105 c -8.79469,8.50721 -18.82433,12.6921 -30.46873,11.22532 -12.523054,-3.25215 -21.300004,-9.78215 -22.45064,-22.98517 l 16.570712,-14.43256 18.174328,9.08717 v 0 l 2.67269,-5.3454 -18.70886,-10.15624 -26.726954,19.77795 c 3.606431,21.65225 15.877676,25.97487 27.796034,31.00326 13.54165,-1.71338 27.08331,-3.60737 40.62496,-12.2944 l 2.13816,-42.22858 -39.02135,-18.70887 c -15.061501,-1.53048 -28.94688,0.46741 -41.159506,7.48355 l -13.898017,47.03943 c 5.850337,26.69711 26.895953,32.12083 46.504899,39.55589 24.430364,-0.50985 41.217254,-10.57405 60.402914,-17.63978 l 6.94901,-62.00653 C 142.61419,107.56604 117.37515,103.68083 93.009796,92.80608 Z"
       id="path817"
       inkscape:connector-curvature="0"
       sodipodi:nodetypes="cccccccccccccccccccccccccccc" />
    <path
       style="opacity:1;fill:#000000;fill-opacity:1;fill-rule:evenodd;stroke-width:0.26458332"
       id="path819"
       sodipodi:type="arc"
       sodipodi:cx="116.79678"
       sodipodi:cy="105.58401"
       sodipodi:rx="1.3363476"
       sodipodi:ry="1.6036172"
       sodipodi:start="5.0426925"
       sodipodi:end="4.7522523"
       sodipodi:open="true"
       d="m 117.2302,104.06708 a 1.3363476,1.6036172 0 0 1 0.85881,1.92561 1.3363476,1.6036172 0 0 1 -1.53815,1.16755 1.3363476,1.6036172 0 0 1 -1.08198,-1.75622 1.3363476,1.6036172 0 0 1 1.38116,-1.42236" />
    <path
       style="opacity:1;fill:#000000;fill-opacity:1;fill-rule:evenodd;stroke-width:0.26458332"
       id="path819-0"
       sodipodi:type="arc"
       sodipodi:cx="127.63705"
       sodipodi:cy="110.03833"
       sodipodi:rx="1.3363476"
       sodipodi:ry="1.6036172"
       sodipodi:start="5.0426925"
       sodipodi:end="4.7522523"
       sodipodi:open="true"
       d="m 128.07046,108.5214 a 1.3363476,1.6036172 0 0 1 0.85881,1.92561 1.3363476,1.6036172 0 0 1 -1.53815,1.16755 1.3363476,1.6036172 0 0 1 -1.08198,-1.75621 1.3363476,1.6036172 0 0 1 1.38116,-1.42236" />
    <path
       style="opacity:1;fill:#000000;fill-opacity:1;fill-rule:evenodd;stroke-width:0.26458332"
       id="path819-4"
       sodipodi:type="arc"
       sodipodi:cx="138.33928"
       sodipodi:cy="115.57143"
       sodipodi:rx="1.3363476"
       sodipodi:ry="1.6036172"
       sodipodi:start="5.0426925"
       sodipodi:end="4.7522523"
       sodipodi:open="true"
       d="m 138.7727,114.05449 a 1.3363476,1.6036172 0 0 1 0.8588,1.92562 1.3363476,1.6036172 0 0 1 -1.53815,1.16755 1.3363476,1.6036172 0 0 1 -1.08197,-1.75622 1.3363476,1.6036172 0 0 1 1.38116,-1.42236" />
    <path
       style="opacity:1;fill:#000000;fill-opacity:1;fill-rule:evenodd;stroke-width:0.26458332"
       id="path819-8"
       sodipodi:type="arc"
       sodipodi:cx="101.67559"
       sodipodi:cy="100.2634"
       sodipodi:rx="1.3363476"
       sodipodi:ry="1.6036172"
       sodipodi:start="5.0426925"
       sodipodi:end="4.7522523"
       sodipodi:open="true"
       d="m 102.10901,98.746465 a 1.3363476,1.6036172 0 0 1 0.8588,1.925615 1.3363476,1.6036172 0 0 1 -1.53815,1.16755 1.3363476,1.6036172 0 0 1 -1.08197,-1.75622 1.3363476,1.6036172 0 0 1 1.38116,-1.422356" />
    <path
       style="opacity:1;fill:#000000;fill-opacity:1;fill-rule:evenodd;stroke-width:0.26458332"
       id="path819-3"
       sodipodi:type="arc"
       sodipodi:cx="150.24553"
       sodipodi:cy="120.8631"
       sodipodi:rx="1.3363476"
       sodipodi:ry="1.6036172"
       sodipodi:start="5.0426925"
       sodipodi:end="4.7522523"
       sodipodi:open="true"
       d="m 150.67895,119.34617 a 1.3363476,1.6036172 0 0 1 0.8588,1.92561 1.3363476,1.6036172 0 0 1 -1.53815,1.16755 1.3363476,1.6036172 0 0 1 -1.08197,-1.75622 1.3363476,1.6036172 0 0 1 1.38116,-1.42236" />
    <path
       style="opacity:1;fill:#000000;fill-opacity:1;fill-rule:evenodd;stroke-width:0.26458332"
       id="path819-49"
       sodipodi:type="arc"
       sodipodi:cx="161.58482"
       sodipodi:cy="131.63541"
       sodipodi:rx="1.3363476"
       sodipodi:ry="1.6036172"
       sodipodi:start="5.0426925"
       sodipodi:end="4.7522523"
       sodipodi:open="true"
       d="m 162.01824,130.11847 a 1.3363476,1.6036172 0 0 1 0.85881,1.92562 1.3363476,1.6036172 0 0 1 -1.53815,1.16755 1.3363476,1.6036172 0 0 1 -1.08198,-1.75622 1.3363476,1.6036172 0 0 1 1.38116,-1.42236" />
    <path
       style="opacity:1;fill:#000000;fill-opacity:1;fill-rule:evenodd;stroke-width:0.26458332"
       id="path819-5"
       sodipodi:type="arc"
       sodipodi:cx="159.88393"
       sodipodi:cy="143.73067"
       sodipodi:rx="1.3363476"
       sodipodi:ry="1.6036172"
       sodipodi:start="5.0426925"
       sodipodi:end="4.7522523"
       sodipodi:open="true"
       d="m 160.31734,142.21374 a 1.3363476,1.6036172 0 0 1 0.85881,1.92561 1.3363476,1.6036172 0 0 1 -1.53815,1.16755 1.3363476,1.6036172 0 0 1 -1.08198,-1.75622 1.3363476,1.6036172 0 0 1 1.38116,-1.42236" />
    <path
       style="opacity:1;fill:#000000;fill-opacity:1;fill-rule:evenodd;stroke-width:0.26458332"
       id="path819-7"
       sodipodi:type="arc"
       sodipodi:cx="158.75"
       sodipodi:cy="156.39285"
       sodipodi:rx="1.3363476"
       sodipodi:ry="1.6036172"
       sodipodi:start="5.0426925"
       sodipodi:end="4.7522523"
       sodipodi:open="true"
       d="m 159.18342,154.87592 a 1.3363476,1.6036172 0 0 1 0.8588,1.92562 1.3363476,1.6036172 0 0 1 -1.53815,1.16754 1.3363476,1.6036172 0 0 1 -1.08197,-1.75621 1.3363476,1.6036172 0 0 1 1.38116,-1.42236" />
    <path
       style="opacity:1;fill:#000000;fill-opacity:1;fill-rule:evenodd;stroke-width:0.26458332"
       id="path819-6"
       sodipodi:type="arc"
       sodipodi:cx="156.86011"
       sodipodi:cy="168.4881"
       sodipodi:rx="1.3363476"
       sodipodi:ry="1.6036172"
       sodipodi:start="5.0426925"
       sodipodi:end="4.7522523"
       sodipodi:open="true"
       d="m 157.29353,166.97117 a 1.3363476,1.6036172 0 0 1 0.8588,1.92561 1.3363476,1.6036172 0 0 1 -1.53815,1.16755 1.3363476,1.6036172 0 0 1 -1.08198,-1.75622 1.3363476,1.6036172 0 0 1 1.38116,-1.42236" />
    <path
       style="opacity:1;fill:#000000;fill-opacity:1;fill-rule:evenodd;stroke-width:0.26458332"
       id="path819-68"
       sodipodi:type="arc"
       sodipodi:cx="155.34822"
       sodipodi:cy="180.20535"
       sodipodi:rx="1.3363476"
       sodipodi:ry="1.6036172"
       sodipodi:start="5.0426925"
       sodipodi:end="4.7522523"
       sodipodi:open="true"
       d="m 155.78164,178.68842 a 1.3363476,1.6036172 0 0 1 0.8588,1.92562 1.3363476,1.6036172 0 0 1 -1.53815,1.16754 1.3363476,1.6036172 0 0 1 -1.08197,-1.75621 1.3363476,1.6036172 0 0 1 1.38116,-1.42236" />
    <path
       style="opacity:1;fill:#000000;fill-opacity:1;fill-rule:evenodd;stroke-width:0.26458332"
       id="path819-9"
       sodipodi:type="arc"
       sodipodi:cx="149.86757"
       sodipodi:cy="190.22173"
       sodipodi:rx="1.3363476"
       sodipodi:ry="1.6036172"
       sodipodi:start="5.0426925"
       sodipodi:end="4.7522523"
       sodipodi:open="true"
       d="m 150.30099,188.70479 a 1.3363476,1.6036172 0 0 1 0.8588,1.92562 1.3363476,1.6036172 0 0 1 -1.53815,1.16754 1.3363476,1.6036172 0 0 1 -1.08197,-1.75621 1.3363476,1.6036172 0 0 1 1.38116,-1.42236" />
    <path
       style="opacity:1;fill:#000000;fill-opacity:1;fill-rule:evenodd;stroke-width:0.26458332"
       id="path819-1"
       sodipodi:type="arc"
       sodipodi:cx="139.8512"
       sodipodi:cy="194.75745"
       sodipodi:rx="1.3363476"
       sodipodi:ry="1.6036172"
       sodipodi:start="5.0426925"
       sodipodi:end="4.7522523"
       sodipodi:open="true"
       d="m 140.28461,193.24051 a 1.3363476,1.6036172 0 0 1 0.85881,1.92562 1.3363476,1.6036172 0 0 1 -1.53815,1.16755 1.3363476,1.6036172 0 0 1 -1.08198,-1.75622 1.3363476,1.6036172 0 0 1 1.38116,-1.42236" />
    <path
       style="opacity:1;fill:#000000;fill-opacity:1;fill-rule:evenodd;stroke-width:0.26458332"
       id="path819-34"
       sodipodi:type="arc"
       sodipodi:cx="125.86607"
       sodipodi:cy="199.67114"
       sodipodi:rx="1.3363476"
       sodipodi:ry="1.6036172"
       sodipodi:start="5.0426925"
       sodipodi:end="4.7522523"
       sodipodi:open="true"
       d="m 126.29949,198.15421 a 1.3363476,1.6036172 0 0 1 0.85881,1.92562 1.3363476,1.6036172 0 0 1 -1.53815,1.16754 1.3363476,1.6036172 0 0 1 -1.08198,-1.75621 1.3363476,1.6036172 0 0 1 1.38116,-1.42236" />
    <path
       style="opacity:1;fill:#000000;fill-opacity:1;fill-rule:evenodd;stroke-width:0.26458332"
       id="path819-09"
       sodipodi:type="arc"
       sodipodi:cx="113.01488"
       sodipodi:cy="202.69495"
       sodipodi:rx="1.3363476"
       sodipodi:ry="1.6036172"
       sodipodi:start="5.0426925"
       sodipodi:end="4.7522523"
       sodipodi:open="true"
       d="m 113.4483,201.17801 a 1.3363476,1.6036172 0 0 1 0.8588,1.92562 1.3363476,1.6036172 0 0 1 -1.53815,1.16755 1.3363476,1.6036172 0 0 1 -1.08198,-1.75622 1.3363476,1.6036172 0 0 1 1.38116,-1.42236" />
    <path
       style="opacity:1;fill:#000000;fill-opacity:1;fill-rule:evenodd;stroke-width:0.26458332"
       id="path819-14"
       sodipodi:type="arc"
       sodipodi:cx="99.21875"
       sodipodi:cy="205.15179"
       sodipodi:rx="1.3363476"
       sodipodi:ry="1.6036172"
       sodipodi:start="5.0426925"
       sodipodi:end="4.7522523"
       sodipodi:open="true"
       d="m 99.652168,203.63486 a 1.3363476,1.6036172 0 0 1 0.858802,1.92562 1.3363476,1.6036172 0 0 1 -1.538146,1.16754 1.3363476,1.6036172 0 0 1 -1.081978,-1.75621 1.3363476,1.6036172 0 0 1 1.381161,-1.42236" />
    <path
       style="opacity:1;fill:#000000;fill-opacity:1;fill-rule:evenodd;stroke-width:0.26458332"
       id="path819-96"
       sodipodi:type="arc"
       sodipodi:cx="88.068459"
       sodipodi:cy="199.67114"
       sodipodi:rx="1.3363476"
       sodipodi:ry="1.6036172"
       sodipodi:start="5.0426925"
       sodipodi:end="4.7522523"
       sodipodi:open="true"
       d="m 88.501876,198.15421 a 1.3363476,1.6036172 0 0 1 0.858804,1.92562 1.3363476,1.6036172 0 0 1 -1.538148,1.16754 1.3363476,1.6036172 0 0 1 -1.081977,-1.75621 1.3363476,1.6036172 0 0 1 1.381161,-1.42236" />
    <path
       style="opacity:1;fill:#000000;fill-opacity:1;fill-rule:evenodd;stroke-width:0.26458332"
       id="path819-147"
       sodipodi:type="arc"
       sodipodi:cx="74.083336"
       sodipodi:cy="192.3006"
       sodipodi:rx="1.3363476"
       sodipodi:ry="1.6036172"
       sodipodi:start="5.0426925"
       sodipodi:end="4.7522523"
       sodipodi:open="true"
       d="m 74.516754,190.78367 a 1.3363476,1.6036172 0 0 1 0.858804,1.92561 1.3363476,1.6036172 0 0 1 -1.538148,1.16755 1.3363476,1.6036172 0 0 1 -1.081978,-1.75622 1.3363476,1.6036172 0 0 1 1.381161,-1.42236" />
    <path
       style="opacity:1;fill:#000000;fill-opacity:1;fill-rule:evenodd;stroke-width:0.26458332"
       id="path819-15"
       sodipodi:type="arc"
       sodipodi:cx="62.36607"
       sodipodi:cy="184.36308"
       sodipodi:rx="1.3363476"
       sodipodi:ry="1.6036172"
       sodipodi:start="5.0426925"
       sodipodi:end="4.7522523"
       sodipodi:open="true"
       d="m 62.799488,182.84615 a 1.3363476,1.6036172 0 0 1 0.858804,1.92562 1.3363476,1.6036172 0 0 1 -1.538148,1.16754 1.3363476,1.6036172 0 0 1 -1.081978,-1.75621 1.3363476,1.6036172 0 0 1 1.381161,-1.42236" />
    <path
       style="opacity:1;fill:#000000;fill-opacity:1;fill-rule:evenodd;stroke-width:0.26458332"
       id="path819-01"
       sodipodi:type="arc"
       sodipodi:cx="57.641365"
       sodipodi:cy="170.75595"
       sodipodi:rx="1.3363476"
       sodipodi:ry="1.6036172"
       sodipodi:start="5.0426925"
       sodipodi:end="4.7522523"
       sodipodi:open="true"
       d="m 58.074783,169.23902 a 1.3363476,1.6036172 0 0 1 0.858804,1.92561 1.3363476,1.6036172 0 0 1 -1.538148,1.16755 1.3363476,1.6036172 0 0 1 -1.081978,-1.75621 1.3363476,1.6036172 0 0 1 1.381161,-1.42236" />
    <path
       style="opacity:1;fill:#000000;fill-opacity:1;fill-rule:evenodd;stroke-width:0.26458332"
       id="path819-90"
       sodipodi:type="arc"
       sodipodi:cx="59.720238"
       sodipodi:cy="154.88095"
       sodipodi:rx="1.3363476"
       sodipodi:ry="1.6036172"
       sodipodi:start="5.0426925"
       sodipodi:end="4.7522523"
       sodipodi:open="true"
       d="m 60.153656,153.36402 a 1.3363476,1.6036172 0 0 1 0.858804,1.92561 1.3363476,1.6036172 0 0 1 -1.538148,1.16755 1.3363476,1.6036172 0 0 1 -1.081978,-1.75621 1.3363476,1.6036172 0 0 1 1.381161,-1.42236" />
    <path
       style="opacity:1;fill:#000000;fill-opacity:1;fill-rule:evenodd;stroke-width:0.26458332"
       id="path819-80"
       sodipodi:type="arc"
       sodipodi:cx="63.688984"
       sodipodi:cy="139.9509"
       sodipodi:rx="1.3363476"
       sodipodi:ry="1.6036172"
       sodipodi:start="5.0426925"
       sodipodi:end="4.7522523"
       sodipodi:open="true"
       d="m 64.122402,138.43397 a 1.3363476,1.6036172 0 0 1 0.858804,1.92561 1.3363476,1.6036172 0 0 1 -1.538148,1.16755 1.3363476,1.6036172 0 0 1 -1.081978,-1.75622 1.3363476,1.6036172 0 0 1 1.381161,-1.42236" />
    <path
       style="opacity:1;fill:#000000;fill-opacity:1;fill-rule:evenodd;stroke-width:0.26458332"
       id="path819-491"
       sodipodi:type="arc"
       sodipodi:cx="77.10714"
       sodipodi:cy="121.43005"
       sodipodi:rx="1.3363476"
       sodipodi:ry="1.6036172"
       sodipodi:start="5.0426925"
       sodipodi:end="4.7522523"
       sodipodi:open="true"
       d="m 77.540557,119.91312 a 1.3363476,1.6036172 0 0 1 0.858804,1.92562 1.3363476,1.6036172 0 0 1 -1.538147,1.16754 1.3363476,1.6036172 0 0 1 -1.081978,-1.75621 1.3363476,1.6036172 0 0 1 1.381161,-1.42236" />
    <path
       style="opacity:1;fill:#000000;fill-opacity:1;fill-rule:evenodd;stroke-width:0.26458332"
       id="path819-491-2"
       sodipodi:type="arc"
       sodipodi:cx="92.982147"
       sodipodi:cy="119.72918"
       sodipodi:rx="1.3363476"
       sodipodi:ry="1.6036172"
       sodipodi:start="5.0426925"
       sodipodi:end="4.7522523"
       sodipodi:open="true"
       d="m 93.415565,118.21225 a 1.3363476,1.6036172 0 0 1 0.858804,1.92561 1.3363476,1.6036172 0 0 1 -1.538148,1.16755 1.3363476,1.6036172 0 0 1 -1.081978,-1.75621 1.3363476,1.6036172 0 0 1 1.381161,-1.42236" />
    <path
       style="opacity:1;fill:#000000;fill-opacity:1;fill-rule:evenodd;stroke-width:0.26458332"
       id="path819-491-8"
       sodipodi:type="arc"
       sodipodi:cx="108.66816"
       sodipodi:cy="120.8631"
       sodipodi:rx="1.3363476"
       sodipodi:ry="1.6036172"
       sodipodi:start="5.0426925"
       sodipodi:end="4.7522523"
       sodipodi:open="true"
       d="m 109.10158,119.34617 a 1.3363476,1.6036172 0 0 1 0.8588,1.92561 1.3363476,1.6036172 0 0 1 -1.53815,1.16755 1.3363476,1.6036172 0 0 1 -1.08197,-1.75622 1.3363476,1.6036172 0 0 1 1.38116,-1.42236" />
    <path
       style="opacity:1;fill:#000000;fill-opacity:1;fill-rule:evenodd;stroke-width:0.26458332"
       id="path819-491-9"
       sodipodi:type="arc"
       sodipodi:cx="122.84225"
       sodipodi:cy="126.15475"
       sodipodi:rx="1.3363476"
       sodipodi:ry="1.6036172"
       sodipodi:start="5.0426925"
       sodipodi:end="4.7522523"
       sodipodi:open="true"
       d="m 123.27566,124.63782 a 1.3363476,1.6036172 0 0 1 0.85881,1.92561 1.3363476,1.6036172 0 0 1 -1.53815,1.16755 1.3363476,1.6036172 0 0 1 -1.08198,-1.75622 1.3363476,1.6036172 0 0 1 1.38116,-1.42236" />
    <path
       style="opacity:1;fill:#000000;fill-opacity:1;fill-rule:evenodd;stroke-width:0.26458332"
       id="path819-491-6"
       sodipodi:type="arc"
       sodipodi:cx="141.38374"
       sodipodi:cy="142.49564"
       sodipodi:rx="1.3363476"
       sodipodi:ry="1.6036172"
       sodipodi:start="5.0426925"
       sodipodi:end="4.7522523"
       sodipodi:open="true"
       d="m 141.81716,140.9787 a 1.3363476,1.6036172 0 0 1 0.85881,1.92562 1.3363476,1.6036172 0 0 1 -1.53815,1.16754 1.3363476,1.6036172 0 0 1 -1.08198,-1.75621 1.3363476,1.6036172 0 0 1 1.38116,-1.42236" />
    <path
       style="opacity:1;fill:#000000;fill-opacity:1;fill-rule:evenodd;stroke-width:0.26458332"
       id="path819-491-0"
       sodipodi:type="arc"
       sodipodi:cx="141.55208"
       sodipodi:cy="154.50298"
       sodipodi:rx="1.3363476"
       sodipodi:ry="1.6036172"
       sodipodi:start="5.0426925"
       sodipodi:end="4.7522523"
       sodipodi:open="true"
       d="m 141.9855,152.98604 a 1.3363476,1.6036172 0 0 1 0.8588,1.92562 1.3363476,1.6036172 0 0 1 -1.53815,1.16754 1.3363476,1.6036172 0 0 1 -1.08198,-1.75621 1.3363476,1.6036172 0 0 1 1.38117,-1.42236" />
    <path
       style="opacity:1;fill:#000000;fill-opacity:1;fill-rule:evenodd;stroke-width:0.26458332"
       id="path819-491-67"
       sodipodi:type="arc"
       sodipodi:cx="140.60715"
       sodipodi:cy="169.05505"
       sodipodi:rx="1.3363476"
       sodipodi:ry="1.6036172"
       sodipodi:start="5.0426925"
       sodipodi:end="4.7522523"
       sodipodi:open="true"
       d="m 141.04057,167.53812 a 1.3363476,1.6036172 0 0 1 0.8588,1.92562 1.3363476,1.6036172 0 0 1 -1.53815,1.16754 1.3363476,1.6036172 0 0 1 -1.08198,-1.75621 1.3363476,1.6036172 0 0 1 1.38116,-1.42236" />
    <path
       style="opacity:1;fill:#000000;fill-opacity:1;fill-rule:evenodd;stroke-width:0.26458332"
       id="path819-491-06"
       sodipodi:type="arc"
       sodipodi:cx="130.59077"
       sodipodi:cy="178.69345"
       sodipodi:rx="1.3363476"
       sodipodi:ry="1.6036172"
       sodipodi:start="5.0426925"
       sodipodi:end="4.7522523"
       sodipodi:open="true"
       d="m 131.02419,177.17652 a 1.3363476,1.6036172 0 0 1 0.85881,1.92561 1.3363476,1.6036172 0 0 1 -1.53815,1.16755 1.3363476,1.6036172 0 0 1 -1.08198,-1.75621 1.3363476,1.6036172 0 0 1 1.38116,-1.42236" />
    <path
       style="opacity:1;fill:#000000;fill-opacity:1;fill-rule:evenodd;stroke-width:0.26458332"
       id="path819-491-5"
       sodipodi:type="arc"
       sodipodi:cx="111.69196"
       sodipodi:cy="183.79613"
       sodipodi:rx="1.3363476"
       sodipodi:ry="1.6036172"
       sodipodi:start="5.0426925"
       sodipodi:end="4.7522523"
       sodipodi:open="true"
       d="m 112.12538,182.2792 a 1.3363476,1.6036172 0 0 1 0.85881,1.92561 1.3363476,1.6036172 0 0 1 -1.53815,1.16755 1.3363476,1.6036172 0 0 1 -1.08198,-1.75622 1.3363476,1.6036172 0 0 1 1.38116,-1.42236" />
    <path
       style="opacity:1;fill:#000000;fill-opacity:1;fill-rule:evenodd;stroke-width:0.26458332"
       id="path819-491-87"
       sodipodi:type="arc"
       sodipodi:cx="94.872025"
       sodipodi:cy="179.4494"
       sodipodi:rx="1.3363476"
       sodipodi:ry="1.6036172"
       sodipodi:start="5.0426925"
       sodipodi:end="4.7522523"
       sodipodi:open="true"
       d="m 95.305442,177.93247 a 1.3363476,1.6036172 0 0 1 0.858804,1.92562 1.3363476,1.6036172 0 0 1 -1.538148,1.16754 1.3363476,1.6036172 0 0 1 -1.081977,-1.75621 1.3363476,1.6036172 0 0 1 1.381161,-1.42236" />
    <path
       style="opacity:1;fill:#000000;fill-opacity:1;fill-rule:evenodd;stroke-width:0.26458332"
       id="path819-491-4"
       sodipodi:type="arc"
       sodipodi:cx="85.233627"
       sodipodi:cy="171.13393"
       sodipodi:rx="1.3363476"
       sodipodi:ry="1.6036172"
       sodipodi:start="5.0426925"
       sodipodi:end="4.7522523"
       sodipodi:open="true"
       d="m 85.667045,169.61699 a 1.3363476,1.6036172 0 0 1 0.858804,1.92562 1.3363476,1.6036172 0 0 1 -1.538148,1.16755 1.3363476,1.6036172 0 0 1 -1.081978,-1.75622 1.3363476,1.6036172 0 0 1 1.381161,-1.42236" />
    <path
       style="opacity:1;fill:#000000;fill-opacity:1;fill-rule:evenodd;stroke-width:0.26458332"
       id="path819-491-53"
       sodipodi:type="arc"
       sodipodi:cx="79.250504"
       sodipodi:cy="159.00224"
       sodipodi:rx="1.3363476"
       sodipodi:ry="1.6036172"
       sodipodi:start="5.0426925"
       sodipodi:end="4.7522523"
       sodipodi:open="true"
       d="m 79.683921,157.48531 a 1.3363476,1.6036172 0 0 1 0.858804,1.92562 1.3363476,1.6036172 0 0 1 -1.538148,1.16754 1.3363476,1.6036172 0 0 1 -1.081977,-1.75621 1.3363476,1.6036172 0 0 1 1.381161,-1.42236" />
    <path
       style="opacity:1;fill:#000000;fill-opacity:1;fill-rule:evenodd;stroke-width:0.26458332"
       id="path819-491-99"
       sodipodi:type="arc"
       sodipodi:cx="90.525299"
       sodipodi:cy="148.26637"
       sodipodi:rx="1.3363476"
       sodipodi:ry="1.6036172"
       sodipodi:start="5.0426925"
       sodipodi:end="4.7522523"
       sodipodi:open="true"
       d="m 90.958717,146.74944 a 1.3363476,1.6036172 0 0 1 0.858804,1.92562 1.3363476,1.6036172 0 0 1 -1.538148,1.16754 1.3363476,1.6036172 0 0 1 -1.081978,-1.75621 1.3363476,1.6036172 0 0 1 1.381161,-1.42236" />
    <path
       style="opacity:1;fill:#000000;fill-opacity:1;fill-rule:evenodd;stroke-width:0.26458332"
       id="path819-491-80"
       sodipodi:type="arc"
       sodipodi:cx="108.66816"
       sodipodi:cy="143.80626"
       sodipodi:rx="1.3363476"
       sodipodi:ry="1.6036172"
       sodipodi:start="5.0426925"
       sodipodi:end="4.7522523"
       sodipodi:open="true"
       d="m 109.10158,142.28933 a 1.3363476,1.6036172 0 0 1 0.8588,1.92561 1.3363476,1.6036172 0 0 1 -1.53815,1.16755 1.3363476,1.6036172 0 0 1 -1.08197,-1.75622 1.3363476,1.6036172 0 0 1 1.38116,-1.42235" />
  </g>
</svg>
