<?xml version="1.0" encoding="UTF-8" standalone="no"?>
<!-- Created with Inkscape (http://www.inkscape.org/) -->

<svg
   xmlns:dc="http://purl.org/dc/elements/1.1/"
   xmlns:cc="http://creativecommons.org/ns#"
   xmlns:rdf="http://www.w3.org/1999/02/22-rdf-syntax-ns#"
   xmlns:svg="http://www.w3.org/2000/svg"
   xmlns="http://www.w3.org/2000/svg"
   xmlns:sodipodi="http://sodipodi.sourceforge.net/DTD/sodipodi-0.dtd"
   xmlns:inkscape="http://www.inkscape.org/namespaces/inkscape"
   width="210mm"
   height="297mm"
   viewBox="0 0 210 297"
   version="1.1"
   id="svg8"
   inkscape:version="0.92.2 (5c3e80d, 2017-08-06)"
   sodipodi:docname="charki_icon.svg">
  <defs
     id="defs2" />
  <sodipodi:namedview
     id="base"
     pagecolor="#ffffff"
     bordercolor="#666666"
     borderopacity="1.0"
     inkscape:pageopacity="0.0"
     inkscape:pageshadow="2"
     inkscape:zoom="0.49497475"
     inkscape:cx="95.318237"
     inkscape:cy="528.92177"
     inkscape:document-units="mm"
     inkscape:current-layer="layer1"
     showgrid="false"
     inkscape:window-width="1920"
     inkscape:window-height="1001"
     inkscape:window-x="-9"
     inkscape:window-y="-9"
     inkscape:window-maximized="1" />
  <metadata
     id="metadata5">
    <rdf:RDF>
      <cc:Work
         rdf:about="">
        <dc:format>image/svg+xml</dc:format>
        <dc:type
           rdf:resource="http://purl.org/dc/dcmitype/StillImage" />
        <dc:title></dc:title>
      </cc:Work>
    </rdf:RDF>
  </metadata>
  <g
     inkscape:label="Layer 1"
     inkscape:groupmode="layer"
     id="layer1">
    <path
       style="opacity:1;fill:#2a7fff;fill-opacity:1;fill-rule:evenodd;stroke-width:0.26458332"
       id="path815"
       sodipodi:type="arc"
       sodipodi:cx="102.06607"
       sodipodi:cy="152.53629"
       sodipodi:rx="59.066566"
       sodipodi:ry="59.601105"
       sodipodi:start="5.0426925"
       sodipodi:end="4.7522523"
       sodipodi:open="true"
       d="M 121.22314,96.156981 A 59.066566,59.601105 0 0 1 159.18228,167.72568 59.066566,59.601105 0 0 1 91.196137,211.11946 59.066566,59.601105 0 0 1 43.372714,145.84687 59.066566,59.601105 0 0 1 104.42004,92.98253" />
    <path
       style="opacity:1;fill:#ffe680;fill-opacity:1;fill-rule:evenodd;stroke-width:0.53453904"
       d="m 114.77029,115.51995 c -10.6596,0.29369 -20.654958,6.10014 -26.090503,15.15638 -4.059936,6.76433 -5.235146,13.22512 -3.842367,21.12369 1.409146,7.99138 5.104239,13.9156 11.388853,18.25937 12.757497,8.8176 28.932097,6.27995 37.413797,-5.86995 8.31144,-11.90603 5.37021,-27.32872 -6.54538,-34.32146 -8.05347,-4.72624 -17.61969,-4.3103 -24.24178,1.05401 -3.586625,2.90538 -6.872402,8.44735 -7.521927,12.68687 -0.655757,4.28023 0.676956,10.20477 3.006264,13.36417 6.859923,9.30463 20.346793,9.83724 26.453403,1.04469 5.72328,-8.24063 1.51325,-19.1086 -7.9229,-20.45258 -2.58401,-0.36804 -4.22747,0.002 -6.52819,1.47023 -2.37915,1.51819 -3.68332,3.51329 -4.22185,6.45855 -0.78594,4.29822 2.68055,8.25337 6.89141,7.86289 l 2.1402,-0.19846 -0.8672,1.2453 c -1.19447,1.71512 -4.15334,2.91558 -6.44785,2.61609 -2.94068,-0.38383 -6.14599,-3.25963 -7.07321,-6.34608 -3.451399,-11.48882 10.70475,-20.10484 21.14923,-12.8723 5.34856,3.70373 7.86807,10.2544 6.65667,17.30717 -0.51041,2.97163 -0.98456,4.04099 -3.19906,7.21498 -2.26233,3.24249 -3.03577,3.97792 -5.95778,5.66457 -8.46369,4.88547 -19.32864,3.64715 -25.874112,-2.94898 -5.721057,-5.76533 -8.14138,-13.28727 -6.923134,-21.51589 0.639725,-4.32101 1.015679,-5.37057 3.198517,-8.92949 4.513045,-7.35807 9.862288,-11.10618 18.422779,-12.90843 8.37141,-1.76245 16.90908,0.23069 23.35946,5.45333 8.90031,7.20626 12.96488,18.90401 10.73614,30.89835 -1.80301,9.70325 -8.5585,18.47612 -17.95375,23.31524 -2.45509,1.26452 -5.9601,2.3714 -9.83558,3.10606 -5.06416,0.96001 -6.90197,0.99968 -11.5626,0.24964 -3.04779,-0.49049 -6.737143,-1.40472 -8.198585,-2.03163 -3.864246,-1.65762 -10.697939,-6.56013 -13.199604,-9.4694 -9.522351,-11.07392 -12.079901,-27.00291 -6.585755,-41.01754 1.517035,-3.86968 7.181251,-11.76954 10.577238,-14.75204 3.334748,-2.9287 12.526983,-8.30116 14.679126,-8.5793 1.25232,-0.16184 16.0501,4.92817 17.87584,6.14879 0.33239,0.22233 -1.17764,0.4532 -3.35574,0.51321 z"
       id="path823"
       inkscape:connector-curvature="0" />
    <path
       style="opacity:1;fill:#ff0000;fill-opacity:1;fill-rule:evenodd;stroke-width:0.53453904"
       d="m 113.95236,184.5191 c 8.58763,-6.32186 13.48499,-16.79266 12.7834,-27.33156 -0.52403,-7.87176 -3.24427,-13.84865 -8.89386,-19.54157 -5.71598,-5.75982 -12.13031,-8.5178 -19.769958,-8.50053 -15.508125,0.035 -27.345411,11.34598 -27.381005,26.16347 -0.03488,14.52007 11.178566,25.50956 24.954253,24.45588 9.31065,-0.71216 16.93051,-6.51072 19.30949,-14.69414 1.28849,-4.43224 0.82588,-10.85842 -1.05902,-14.71102 -1.90301,-3.8896 -6.3772,-7.99543 -10.09259,-9.26165 -10.942024,-3.72912 -22.323166,3.52685 -22.323166,14.23197 0,10.03314 9.657379,16.55789 18.174319,12.27901 2.332287,-1.17173 3.470997,-2.41323 4.523187,-4.93149 1.08807,-2.6041 1.02115,-4.98671 -0.21661,-7.71297 -1.80636,-3.97863 -6.909685,-5.24974 -10.145484,-2.52699 l -1.644629,1.38386 0.0019,-1.5175 c 0.0027,-2.09007 1.748158,-4.76391 3.803571,-5.8268 2.634241,-1.36222 6.907352,-0.82864 9.429522,1.17747 9.38845,7.46743 2.67634,22.61931 -10.027835,22.63686 -6.505739,0.009 -12.311867,-3.93411 -15.340062,-10.41786 -1.275906,-2.73188 -1.496476,-3.88066 -1.488184,-7.75082 0.0085,-3.95371 0.22425,-4.99895 1.662078,-8.05109 4.164716,-8.84065 13.794909,-14.02133 22.933643,-12.33745 7.98771,1.47179 14.26641,6.26922 17.95974,13.72265 1.93943,3.91395 2.22936,4.99045 2.46664,9.15871 0.49058,8.6179 -1.76491,14.74778 -7.7679,21.11126 -5.87041,6.22295 -14.01971,9.45611 -22.296842,8.84609 -11.420909,-0.84172 -21.432149,-8.13097 -26.44363,-19.25377 -4.054213,-8.99818 -3.510029,-20.05728 1.446249,-29.39126 1.295133,-2.43907 3.542536,-5.34759 6.306545,-8.16172 3.611779,-3.67728 5.098616,-4.75822 9.354431,-6.80078 2.783051,-1.33571 6.334781,-2.68936 7.892732,-3.00812 4.119433,-0.84284 12.528785,-0.71441 16.243075,0.24805 14.13807,3.66355 25.32519,15.28775 28.8071,29.9326 0.96141,4.0437 0.81554,13.76326 -0.27239,18.15011 -1.06832,4.30773 -5.55362,13.96395 -7.1626,15.42006 -0.93626,0.8473 -15.99379,5.10787 -18.18964,5.1468 -0.39983,0.007 0.70872,-1.044 2.46346,-2.33576 z"
       id="path825"
       inkscape:connector-curvature="0" />
    <path
       style="opacity:1;fill:#1a1a1a;fill-opacity:1;fill-rule:evenodd;stroke-width:0.53453904"
       d="m 70.354568,178.8146 c 8.942767,5.80863 20.467726,6.70155 30.083162,2.33077 7.18205,-3.26464 11.81676,-7.91677 15.15334,-15.21023 3.37577,-7.37917 3.6962,-14.35396 0.9876,-21.49736 -5.49835,-14.50073 -20.255319,-21.59225 -34.134654,-16.40345 -13.600736,5.08464 -19.933188,19.45163 -14.092168,31.9721 3.947811,8.4623 12.059794,13.54971 20.556579,12.89199 4.601962,-0.35623 10.452793,-3.05393 13.393923,-6.17567 2.96937,-3.15172 5.23492,-8.78587 5.1105,-12.70914 -0.36644,-11.55422 -11.167908,-19.64793 -21.186184,-15.87513 -9.389401,3.53596 -12.091978,14.87322 -5.08602,21.33571 1.918525,1.76969 3.481683,2.3978 6.209182,2.49498 2.820482,0.1005 5.026638,-0.80182 7.141764,-2.92099 3.086735,-3.09264 2.477726,-8.31652 -1.210708,-10.38513 l -1.874693,-1.05139 1.420805,-0.53303 c 1.95692,-0.73408 5.074352,-0.0429 6.793441,1.50599 2.203213,1.98514 3.209833,6.17214 2.221323,9.2395 -3.679556,11.41785 -20.224825,10.47631 -24.718567,-1.40657 -2.301231,-6.08515 -0.657351,-12.90842 4.34317,-18.02738 2.106934,-2.15683 3.104262,-2.76811 6.729039,-4.12431 3.703021,-1.38544 4.757234,-1.55191 8.120286,-1.282 9.741192,0.78181 17.983442,7.9683 19.628352,17.11414 1.43774,7.99392 -0.83907,15.56054 -6.51265,21.64371 -2.97931,3.19438 -3.88457,3.8451 -7.70177,5.53617 -7.892083,3.4963 -14.423561,3.54587 -22.494367,0.1707 -7.892589,-3.30064 -13.790364,-9.78762 -16.136585,-17.74868 -3.237341,-10.98477 0.05598,-22.92262 8.698933,-31.53255 6.992025,-6.9653 17.533354,-10.35358 28.015179,-9.00486 2.73903,0.35244 6.25299,1.4306 9.86068,3.02549 4.71423,2.08406 6.24983,3.09454 9.6612,6.35745 2.23084,2.13374 4.74937,4.98052 5.59674,6.32617 2.24057,3.55809 5.08409,11.47315 5.49239,15.28833 1.55419,14.52213 -5.38153,29.08817 -17.85963,37.50794 -3.44541,2.32484 -12.592786,5.61378 -17.081588,6.14171 -4.407837,0.51838 -15.025259,-0.276 -16.954994,-1.26857 -1.122891,-0.57758 -10.416805,-13.16746 -11.22713,-15.20871 -0.147466,-0.37172 1.226789,0.29531 3.054092,1.48222 z"
       id="path827"
       inkscape:connector-curvature="0" />
  </g>
</svg>
