<?xml version="1.0" encoding="UTF-8" standalone="no"?>
<!-- Created with Inkscape (http://www.inkscape.org/) -->

<svg
   xmlns:dc="http://purl.org/dc/elements/1.1/"
   xmlns:cc="http://creativecommons.org/ns#"
   xmlns:rdf="http://www.w3.org/1999/02/22-rdf-syntax-ns#"
   xmlns:svg="http://www.w3.org/2000/svg"
   xmlns="http://www.w3.org/2000/svg"
   xmlns:xlink="http://www.w3.org/1999/xlink"
   xmlns:sodipodi="http://sodipodi.sourceforge.net/DTD/sodipodi-0.dtd"
   xmlns:inkscape="http://www.inkscape.org/namespaces/inkscape"
   width="210mm"
   height="297mm"
   viewBox="0 0 210 297"
   version="1.1"
   id="svg8"
   inkscape:version="0.92.2 (5c3e80d, 2017-08-06)"
   sodipodi:docname="pot_icon.svg">
  <defs
     id="defs2">
    <linearGradient
       inkscape:collect="always"
       id="linearGradient908">
      <stop
         style="stop-color:#ac9393;stop-opacity:1;"
         offset="0"
         id="stop904" />
      <stop
         style="stop-color:#ac9393;stop-opacity:0;"
         offset="1"
         id="stop906" />
    </linearGradient>
    <linearGradient
       inkscape:collect="always"
       xlink:href="#linearGradient908"
       id="linearGradient910"
       x1="87.389698"
       y1="184.97515"
       x2="129.89542"
       y2="184.97515"
       gradientUnits="userSpaceOnUse" />
  </defs>
  <sodipodi:namedview
     id="base"
     pagecolor="#ffffff"
     bordercolor="#666666"
     borderopacity="1.0"
     inkscape:pageopacity="0.0"
     inkscape:pageshadow="2"
     inkscape:zoom="0.98994949"
     inkscape:cx="189.50419"
     inkscape:cy="447.06891"
     inkscape:document-units="mm"
     inkscape:current-layer="layer1"
     showgrid="false"
     inkscape:measure-start="0,0"
     inkscape:measure-end="0,0"
     inkscape:window-width="1920"
     inkscape:window-height="1001"
     inkscape:window-x="-9"
     inkscape:window-y="-9"
     inkscape:window-maximized="1" />
  <metadata
     id="metadata5">
    <rdf:RDF>
      <cc:Work
         rdf:about="">
        <dc:format>image/svg+xml</dc:format>
        <dc:type
           rdf:resource="http://purl.org/dc/dcmitype/StillImage" />
        <dc:title></dc:title>
      </cc:Work>
    </rdf:RDF>
  </metadata>
  <g
     inkscape:label="Layer 1"
     inkscape:groupmode="layer"
     id="layer1">
    <path
       style="opacity:1;fill:#ffaaaa;fill-opacity:1;fill-rule:evenodd;stroke-width:0.26458332"
       id="path815"
       sodipodi:type="arc"
       sodipodi:cx="110.11504"
       sodipodi:cy="162.56343"
       sodipodi:rx="51.850288"
       sodipodi:ry="52.652096"
       sodipodi:start="5.0426925"
       sodipodi:end="4.7522523"
       sodipodi:open="true"
       d="m 126.93166,112.7575 a 51.850288,52.652096 0 0 1 33.32159,63.22436 51.850288,52.652096 0 0 1 -59.68014,38.33442 51.850288,52.652096 0 0 1 -41.980741,-57.66233 51.850288,52.652096 0 0 1 53.589051,-46.70079" />
    <path
       style="fill:url(#linearGradient910);fill-opacity:1;stroke:#000000;stroke-width:0.26458332px;stroke-linecap:butt;stroke-linejoin:miter;stroke-opacity:1"
       d="m 105.69973,167.06942 c -8.887321,4.12116 -14.988697,11.20238 -18.174332,21.38157 1.847917,11.02696 7.238706,11.4253 11.759859,14.43255 l 18.174333,0.53454 c 8.654,-4.98903 10.62502,-9.97806 12.2944,-14.96709 -3.29651,-7.70625 -7.67004,-15.26562 -18.70887,-21.9161 z"
       id="path817"
       inkscape:connector-curvature="0"
       sodipodi:nodetypes="ccccccc" />
    <path
       sodipodi:type="star"
       style="opacity:1;fill:#0000ff;fill-opacity:1;fill-rule:evenodd;stroke-width:0.22634155"
       id="path854"
       sodipodi:sides="10"
       sodipodi:cx="111.56548"
       sodipodi:cy="128.69858"
       sodipodi:r1="7.1948786"
       sodipodi:r2="1.9448906"
       sodipodi:arg1="0.77416225"
       sodipodi:arg2="1.0883215"
       inkscape:flatsided="false"
       inkscape:rounded="0"
       inkscape:randomized="0"
       d="m 116.70987,133.72864 -4.24201,-3.30718 0.30292,5.37032 -1.48794,-5.16896 -2.91153,4.52274 1.83447,-5.05637 -5.01388,1.94762 4.45618,-3.01242 -5.20109,-1.37142 5.37577,0.18217 -3.40167,-4.16663 4.24202,3.30719 -0.30293,-5.37033 1.48795,5.16896 2.91153,-4.52273 -1.83447,5.05637 5.01387,-1.94762 -4.45617,3.01242 5.20109,1.37142 -5.37578,-0.18218 z"
       inkscape:transform-center-y="-2.20673e-006"
       inkscape:transform-center-x="-7.4916432e-006" />
    <path
       sodipodi:type="star"
       style="opacity:1;fill:#00ff00;fill-opacity:1;fill-rule:evenodd;stroke-width:0.16685434"
       id="path854-4"
       sodipodi:sides="10"
       sodipodi:cx="115.59407"
       sodipodi:cy="148.54268"
       sodipodi:r1="5.3039165"
       sodipodi:r2="1.4337332"
       sodipodi:arg1="0.77416225"
       sodipodi:arg2="1.0883215"
       inkscape:flatsided="false"
       inkscape:rounded="0"
       inkscape:randomized="0"
       d="m 119.38641,152.25074 -3.12713,-2.43799 0.22331,3.95889 -1.09688,-3.81045 -2.14632,3.33407 1.35233,-3.72745 -3.69612,1.43574 3.285,-2.22069 -3.83414,-1.01098 3.96291,0.13429 -2.50764,-3.07155 3.12713,2.43799 -0.22331,-3.95889 1.09688,3.81045 2.14632,-3.33407 -1.35233,3.72745 3.69612,-1.43574 -3.285,2.22069 3.83414,1.01098 -3.96291,-0.13429 z"
       inkscape:transform-center-y="-5.0184766e-006"
       inkscape:transform-center-x="1.1997417e-006" />
    <path
       sodipodi:type="star"
       style="opacity:1;fill:#0000ff;fill-opacity:1;fill-rule:evenodd;stroke-width:0.16685434"
       id="path854-4-6"
       sodipodi:sides="10"
       sodipodi:cx="97.018828"
       sodipodi:cy="138.6428"
       sodipodi:r1="5.3039165"
       sodipodi:r2="1.4337332"
       sodipodi:arg1="0.77416225"
       sodipodi:arg2="1.0883215"
       inkscape:flatsided="false"
       inkscape:rounded="0"
       inkscape:randomized="0"
       d="m 100.81117,142.35087 -3.127127,-2.43799 0.223309,3.95889 -1.096883,-3.81045 -2.146318,3.33407 1.352331,-3.72745 -3.696124,1.43574 3.284999,-2.22069 -3.834136,-1.01099 3.96291,0.1343 -2.507639,-3.07155 3.127124,2.43799 -0.223309,-3.9589 1.096883,3.81045 2.146317,-3.33406 -1.35233,3.72745 3.696123,-1.43575 -3.284998,2.2207 3.834138,1.01098 -3.962912,-0.1343 z"
       inkscape:transform-center-y="-5.0184766e-006"
       inkscape:transform-center-x="1.1997417e-006" />
    <path
       sodipodi:type="star"
       style="opacity:1;fill:#ffff00;fill-opacity:1;fill-rule:evenodd;stroke-width:0.26458332"
       id="path886"
       sodipodi:sides="10"
       sodipodi:cx="101.82969"
       sodipodi:cy="148.93266"
       sodipodi:r1="5.509902"
       sodipodi:r2="1.4894148"
       sodipodi:arg1="1.1722739"
       sodipodi:arg2="1.4864331"
       inkscape:flatsided="false"
       inkscape:rounded="0"
       inkscape:randomized="0"
       d="m 103.96784,154.01078 -2.01265,-3.594 -1.38054,3.88095 0.48423,-4.09062 -3.398044,2.32829 2.796154,-3.02476 -4.117607,-0.1137 4.040047,-0.80353 -3.26439,-2.51226 3.74077,1.72461 -1.164277,-3.95122 2.012657,3.59401 1.38054,-3.88095 -0.48423,4.09062 3.39804,-2.32829 -2.79615,3.02476 4.11761,0.11369 -4.04005,0.80354 3.26439,2.51225 -3.74077,-1.7246 z"
       inkscape:transform-center-x="1.2828937e-006"
       inkscape:transform-center-y="-1.8763172e-006" />
    <path
       style="fill:none;stroke:#000000;stroke-width:0.26458332px;stroke-linecap:butt;stroke-linejoin:miter;stroke-opacity:1"
       d="m 87.525396,188.45099 h 42.228594 v 0 0"
       id="path914"
       inkscape:connector-curvature="0" />
    <path
       style="fill:none;stroke:#000000;stroke-width:0.26458332px;stroke-linecap:butt;stroke-linejoin:miter;stroke-opacity:1"
       d="m 92.60889,177.66415 30.86963,-0.4009 v 0"
       id="path916"
       inkscape:connector-curvature="0"
       sodipodi:nodetypes="ccc" />
    <path
       style="fill:none;stroke:#000000;stroke-width:0.26458332px;stroke-linecap:butt;stroke-linejoin:miter;stroke-opacity:1"
       d="m 92.074351,198.24391 31.270539,0.80181"
       id="path918"
       inkscape:connector-curvature="0" />
    <path
       style="opacity:1;fill:#00ff00;fill-opacity:1;fill-rule:evenodd;stroke-width:0.50507629"
       d="M 369.83054,691.90664 V 672.2558 l 4.67195,-0.28733 c 2.56958,-0.15803 18.82041,-0.4268 36.11296,-0.59727 l 31.44099,-0.30994 v 20.24811 20.2481 h -36.11295 -36.11295 z"
       id="path920"
       inkscape:connector-curvature="0"
       transform="scale(0.26458333)" />
    <path
       style="opacity:1;fill:#00ff00;fill-opacity:1;fill-rule:evenodd;stroke-width:0.50507629"
       d="M 442.05644,691.43299 V 671.3085 l 7.19734,-0.32925 c 3.95854,-0.18109 9.37683,-0.33009 12.04065,-0.33111 l 4.84331,-0.002 2.80316,3.91434 c 4.48658,6.26507 8.42457,12.5886 11.58779,18.60738 l 2.94401,5.60167 v 6.39389 6.39389 h -20.70813 -20.70813 z"
       id="path922"
       inkscape:connector-curvature="0"
       transform="scale(0.26458333)" />
    <path
       style="opacity:1;fill:#00ff00;fill-opacity:1;fill-rule:evenodd;stroke-width:0.50507629"
       d="m 331.94982,711.29684 c 0,-1.04034 5.20012,-14.25491 7.5495,-19.1848 2.90736,-6.10076 8.13633,-15.26351 10.44855,-18.30902 l 1.24625,-1.6415 h 9.31821 9.31821 v 19.69798 19.69797 h -18.94036 c -10.4172,0 -18.94036,-0.11728 -18.94036,-0.26063 z"
       id="path924"
       inkscape:connector-curvature="0"
       transform="scale(0.26458333)" />
    <path
       style="opacity:1;fill:#00ff00;fill-opacity:1;fill-rule:evenodd;stroke-width:0.50507629"
       d="m 483.51613,705.37029 0.0434,-6.18719 2.40939,5.05077 c 3.67074,7.69489 3.65473,7.3236 0.3157,7.3236 h -2.81195 z"
       id="path926"
       inkscape:connector-curvature="0"
       transform="scale(0.26458333)" />
    <path
       style="opacity:1;fill:#0000ff;fill-opacity:1;fill-rule:evenodd;stroke-width:0.50507629"
       d="m 400.89273,749.91451 c -16.94531,-0.49146 -33.02568,-0.91333 -35.73415,-0.93748 l -4.92449,-0.0439 V 731.00291 713.0727 h 35.86041 35.86042 v 18.68782 c 0,16.20674 0.0998,18.68783 0.75147,18.68783 0.6493,0 0.77033,-2.55775 0.89021,-18.81409 l 0.13876,-18.8141 0.11993,19.06663 0.11993,19.06663 -1.13642,-0.0727 c -0.62503,-0.04 -15.00076,-0.47478 -31.94607,-0.96625 z"
       id="path928"
       inkscape:connector-curvature="0"
       transform="scale(0.26458333)" />
    <path
       style="opacity:1;fill:#0000ff;fill-opacity:1;fill-rule:evenodd;stroke-width:0.50507629"
       d="m 443.4454,751.08039 -9.47018,-0.14926 -0.096,-18.29787 -0.096,-18.29787 -0.33981,16.41498 c -0.18689,9.02824 -0.40846,17.09683 -0.49237,17.93021 -0.33928,3.36977 -0.88116,-9.41116 -0.93687,-22.09709 l -0.0593,-13.51079 h 23.99112 23.99112 v 11.05404 11.05404 l -3.01938,4.22452 c -1.66066,2.32348 -4.63042,5.98597 -6.59946,8.13886 l -3.58009,3.91434 -6.91132,-0.11443 c -3.80123,-0.0629 -11.17291,-0.18159 -16.38151,-0.26368 z"
       id="path930"
       inkscape:connector-curvature="0"
       transform="scale(0.26458333)" />
    <path
       style="opacity:1;fill:#0000ff;fill-opacity:1;fill-rule:evenodd;stroke-width:0.50507629"
       d="M 479.93716,723.79169 V 713.0727 h 4.54569 c 2.53554,0 4.54569,0.21227 4.54569,0.48002 0,0.95173 -3.55182,10.26501 -5.50137,14.42525 -3.69161,7.8777 -3.59001,7.99618 -3.59001,-4.18628 z"
       id="path932"
       inkscape:connector-curvature="0"
       transform="scale(0.26458333)" />
    <path
       style="opacity:1;fill:#0000ff;fill-opacity:1;fill-rule:evenodd;stroke-width:0.50507629"
       d="m 350.63764,748.55785 c -2.16532,-0.14686 -3.09556,-0.48825 -4.21829,-1.54807 -3.82163,-3.6075 -8.69604,-12.18674 -11.10326,-19.5424 -1.44143,-4.40453 -3.35709,-12.10128 -3.36274,-13.51079 -0.003,-0.82084 1.00527,-0.88389 14.1386,-0.88389 h 14.14214 v 17.93021 17.93021 l -3.40927,-0.0934 c -1.87509,-0.0514 -4.65933,-0.17822 -6.18718,-0.28184 z"
       id="path934"
       inkscape:connector-curvature="0"
       transform="scale(0.26458333)" />
    <path
       style="opacity:1;fill:#ff2a2a;fill-opacity:1;fill-rule:evenodd;stroke-width:0.50507629"
       d="m 370.33561,660.76304 v -9.7938 l 3.91434,-3.11583 c 5.55342,-4.42053 13.61582,-9.61273 20.00391,-12.88254 l 5.48297,-2.8065 10.03308,-1.0168 10.03308,-1.0168 7.21239,4.83145 c 3.96681,2.65729 8.91701,6.15645 11.00045,7.7759 l 3.78808,2.94447 0.13527,11.91709 0.13526,11.91709 -22.10608,0.30713 c -12.15835,0.16893 -28.29959,0.40294 -35.86942,0.52004 l -13.76333,0.21291 z"
       id="path936"
       inkscape:connector-curvature="0"
       transform="scale(0.26458333)" />
    <path
       style="opacity:1;fill:#ff2a2a;fill-opacity:1;fill-rule:evenodd;stroke-width:0.50507629"
       d="m 442.05644,658.09657 c 0,-6.43166 0.14477,-11.69394 0.32171,-11.69394 1.40618,0 22.95077,21.84767 22.24277,22.55567 -0.0841,0.0842 -5.19557,0.30582 -11.35873,0.4926 l -11.20575,0.33961 z"
       id="path938"
       inkscape:connector-curvature="0"
       transform="scale(0.26458333)" />
    <path
       style="opacity:1;fill:#ff2a2a;fill-opacity:1;fill-rule:evenodd;stroke-width:0.50507629"
       d="m 354.51847,667.50005 c 1.33794,-1.73043 5.43776,-6.2193 9.1107,-9.97525 l 6.67808,-6.82902 0.0142,9.97526 0.0142,9.97526 h -9.12488 -9.12489 z"
       id="path940"
       inkscape:connector-curvature="0"
       transform="scale(0.26458333)" />
    <path
       sodipodi:type="star"
       style="opacity:1;fill:#ff2a2a;fill-opacity:1;fill-rule:evenodd;stroke-width:0.26458332"
       id="path942"
       sodipodi:sides="10"
       sodipodi:cx="93.143425"
       sodipodi:cy="119.26576"
       sodipodi:r1="5.6206088"
       sodipodi:r2="1.5193405"
       sodipodi:arg1="1.0752447"
       sodipodi:arg2="1.3894039"
       inkscape:flatsided="false"
       inkscape:rounded="0"
       inkscape:randomized="0"
       d="m 95.81612,124.21025 -2.398607,-3.45007 -1.018128,4.07673 0.08739,-4.20104 -3.219926,2.69971 2.540004,-3.34735 -4.19182,0.29149 4.022425,-1.21508 -3.562583,-2.22808 3.968416,1.3813 -1.572559,-3.89658 2.398607,3.45007 1.018128,-4.07673 -0.08739,4.20103 3.219926,-2.6997 -2.540004,3.34734 4.19182,-0.29148 -4.022425,1.21508 3.562583,2.22808 -3.968416,-1.38131 z"
       inkscape:transform-center-x="1.1734605e-006"
       inkscape:transform-center-y="-1.5025608e-006" />
    <path
       sodipodi:type="star"
       style="opacity:1;fill:#ff2a2a;fill-opacity:1;fill-rule:evenodd;stroke-width:0.26458332"
       id="path944"
       sodipodi:sides="10"
       sodipodi:cx="121.20673"
       sodipodi:cy="137.84099"
       sodipodi:r1="5.5438294"
       sodipodi:r2="1.4985859"
       sodipodi:arg1="1.3024301"
       sodipodi:arg2="1.6165894"
       inkscape:flatsided="false"
       inkscape:rounded="0"
       inkscape:randomized="0"
       d="m 122.67672,143.18638 -1.53859,-3.84838 -1.8841,3.69153 1.01728,-4.01775 -3.69409,1.87906 3.18457,-2.65249 -4.09307,-0.65114 4.13547,-0.27407 -2.92864,-2.93263 3.50676,2.20905 -0.64556,-4.09396 1.53858,3.84837 1.8841,-3.69153 -1.01727,4.01776 3.69409,-1.87906 -3.18457,2.65249 4.09307,0.65114 -4.13547,0.27406 2.92864,2.93264 -3.50676,-2.20905 z"
       inkscape:transform-center-x="1.5270139e-006"
       inkscape:transform-center-y="-1.7365795e-006" />
    <path
       sodipodi:type="star"
       style="opacity:1;fill:#ffff00;fill-opacity:1;fill-rule:evenodd;stroke-width:0.26458332"
       id="path946"
       sodipodi:sides="10"
       sodipodi:cx="106.64054"
       sodipodi:cy="160.02437"
       sodipodi:r1="4.0045857"
       sodipodi:r2="1.0825037"
       sodipodi:arg1="1.122073"
       sodipodi:arg2="1.4362322"
       inkscape:flatsided="false"
       inkscape:rounded="0"
       inkscape:randomized="0"
       d="m 108.37779,163.63251 -1.59202,-2.53542 -0.86057,2.86745 0.2023,-2.98696 -2.38166,1.81399 1.91936,-2.29759 -2.99304,0.0676 2.90329,-0.73062 -2.46119,-1.70455 2.77826,1.11543 -0.98923,-2.82565 1.59202,2.53542 0.86058,-2.86746 -0.20231,2.98697 2.38166,-1.81399 -1.91936,2.29759 2.99305,-0.0676 -2.9033,0.73062 2.46119,1.70454 -2.77826,-1.11543 z"
       inkscape:transform-center-x="1.3435029e-006"
       inkscape:transform-center-y="-2.016055e-006" />
  </g>
</svg>
