<?xml version="1.0" encoding="UTF-8" standalone="no"?>
<!-- Created with Inkscape (http://www.inkscape.org/) -->

<svg
   xmlns:dc="http://purl.org/dc/elements/1.1/"
   xmlns:cc="http://creativecommons.org/ns#"
   xmlns:rdf="http://www.w3.org/1999/02/22-rdf-syntax-ns#"
   xmlns:svg="http://www.w3.org/2000/svg"
   xmlns="http://www.w3.org/2000/svg"
   xmlns:sodipodi="http://sodipodi.sourceforge.net/DTD/sodipodi-0.dtd"
   xmlns:inkscape="http://www.inkscape.org/namespaces/inkscape"
   width="210mm"
   height="297mm"
   viewBox="0 0 210 297"
   version="1.1"
   id="svg8"
   inkscape:version="0.92.2 (5c3e80d, 2017-08-06)"
   sodipodi:docname="shell_icon.svg">
  <defs
     id="defs2" />
  <sodipodi:namedview
     id="base"
     pagecolor="#ffffff"
     bordercolor="#666666"
     borderopacity="1.0"
     inkscape:pageopacity="0.0"
     inkscape:pageshadow="2"
     inkscape:zoom="0.49497475"
     inkscape:cx="-310.75668"
     inkscape:cy="547.64116"
     inkscape:document-units="mm"
     inkscape:current-layer="layer1"
     showgrid="false"
     inkscape:window-width="1920"
     inkscape:window-height="1001"
     inkscape:window-x="-9"
     inkscape:window-y="-9"
     inkscape:window-maximized="1" />
  <metadata
     id="metadata5">
    <rdf:RDF>
      <cc:Work
         rdf:about="">
        <dc:format>image/svg+xml</dc:format>
        <dc:type
           rdf:resource="http://purl.org/dc/dcmitype/StillImage" />
        <dc:title></dc:title>
      </cc:Work>
    </rdf:RDF>
  </metadata>
  <g
     inkscape:label="Layer 1"
     inkscape:groupmode="layer"
     id="layer1">
    <path
       style="opacity:1;fill:#ffff00;fill-opacity:1;fill-rule:evenodd;stroke-width:0.26458332"
       id="path815"
       sodipodi:type="arc"
       sodipodi:cx="103.96784"
       sodipodi:cy="163.63251"
       sodipodi:rx="79.379051"
       sodipodi:ry="80.982666"
       sodipodi:start="5.0426925"
       sodipodi:end="4.7522523"
       sodipodi:open="true"
       d="M 129.71286,87.027445 A 79.379051,80.982666 0 0 1 180.72583,184.27101 79.379051,80.982666 0 0 1 89.359832,243.23206 79.379051,80.982666 0 0 1 25.090345,154.54331 79.379051,80.982666 0 0 1 107.13132,82.714177" />
    <g
       id="g882"
       transform="translate(-10.205358,142.875)">
      <path
         style="opacity:1;fill:#ff6600;fill-opacity:1;fill-rule:evenodd;stroke-width:0.71428573"
         d=""
         id="path932"
         inkscape:connector-curvature="0"
         transform="matrix(0.26458333,0,0,0.26458333,10.205358,-142.875)" />
      <g
         id="g961"
         transform="translate(90.525298,-8.3154762)">
        <rect
           style="opacity:1;fill:#ffff00;fill-opacity:1;fill-rule:evenodd;stroke-width:0.26458332"
           id="rect817"
           width="12.828938"
           height="35.279575"
           x="17.639788"
           y="73.562675"
           ry="1.7419371e-014" />
        <path
           style="fill:none;stroke:#000000;stroke-width:0.26741934px;stroke-linecap:butt;stroke-linejoin:miter;stroke-opacity:1"
           d="m 17.633441,77.438082 12.96892,-0.267269 v 0"
           id="path819"
           inkscape:connector-curvature="0" />
        <path
           style="fill:none;stroke:#000000;stroke-width:0.26458332px;stroke-linecap:butt;stroke-linejoin:miter;stroke-opacity:1"
           d="M 17.639789,80.645316 30.86963,80.378048"
           id="path821"
           inkscape:connector-curvature="0" />
        <path
           style="fill:none;stroke:#000000;stroke-width:0.26800752px;stroke-linecap:butt;stroke-linejoin:miter;stroke-opacity:1"
           d="M 17.576329,83.31801 H 30.602361"
           id="path823"
           inkscape:connector-curvature="0" />
        <path
           style="fill:none;stroke:#000000;stroke-width:0.26908779px;stroke-linecap:butt;stroke-linejoin:miter;stroke-opacity:1"
           d="m 17.609332,86.257976 12.993029,0.267271"
           id="path825"
           inkscape:connector-curvature="0" />
        <path
           style="fill:none;stroke:#000000;stroke-width:0.26747534px;stroke-linecap:butt;stroke-linejoin:miter;stroke-opacity:1"
           d="M 30.335275,89.865946 17.62339,89.465378"
           id="path827"
           inkscape:connector-curvature="0" />
        <path
           style="fill:none;stroke:#000000;stroke-width:0.26680121px;stroke-linecap:butt;stroke-linejoin:miter;stroke-opacity:1"
           d="M 17.557443,92.538811 30.602361,93.073348 30.194708,92.80608"
           id="path829"
           inkscape:connector-curvature="0" />
        <path
           style="fill:none;stroke:#000000;stroke-width:0.26824513px;stroke-linecap:butt;stroke-linejoin:miter;stroke-opacity:1"
           d="M 30.555293,95.746045 17.506154,95.34514"
           id="path831"
           inkscape:connector-curvature="0" />
        <path
           style="fill:none;stroke:#000000;stroke-width:0.26458332px;stroke-linecap:butt;stroke-linejoin:miter;stroke-opacity:1"
           d="m 17.506154,98.017834 12.962572,0.53454 v 0"
           id="path833"
           inkscape:connector-curvature="0" />
        <path
           style="fill:none;stroke:#000000;stroke-width:0.26458332px;stroke-linecap:butt;stroke-linejoin:miter;stroke-opacity:1"
           d="M 30.468726,98.552372 Z"
           id="path835"
           inkscape:connector-curvature="0" />
        <path
           style="fill:none;stroke:#000000;stroke-width:0.26458332px;stroke-linecap:butt;stroke-linejoin:miter;stroke-opacity:1"
           d="m 30.468726,101.3587 -12.828937,-0.4009 v 0"
           id="path837"
           inkscape:connector-curvature="0" />
        <path
           style="fill:none;stroke:#000000;stroke-width:0.26458332px;stroke-linecap:butt;stroke-linejoin:miter;stroke-opacity:1"
           d="m 17.639789,103.76413 12.962572,0.66818 v 0"
           id="path839"
           inkscape:connector-curvature="0" />
        <path
           style="fill:#ff0000;stroke:#000000;stroke-width:0.26458332px;stroke-linecap:butt;stroke-linejoin:miter;stroke-opacity:1"
           d="m 17.764881,106.35826 12.473213,0.0472 0.330729,0.0472 v 0"
           id="path841"
           inkscape:connector-curvature="0" />
        <path
           style="opacity:1;fill:#008080;fill-opacity:1;fill-rule:evenodd;stroke-width:0.17857143"
           d="m 103.73451,393.52502 c -5.205361,-0.27769 -15.08929,-0.78994 -21.96429,-1.13832 -6.875,-0.34838 -13.082589,-0.68078 -13.794642,-0.73868 l -1.294643,-0.10526 v -4.72885 -4.72885 l 1.830357,0.10526 c 1.006696,0.0579 11.3125,0.3859 22.901786,0.72889 11.589282,0.343 21.654022,0.66947 22.366072,0.72549 l 1.29464,0.10186 v 5.16334 5.16333 l -0.9375,-0.0217 c -0.51562,-0.0119 -5.19643,-0.24886 -10.40178,-0.52656 z"
           id="path845"
           inkscape:connector-curvature="0"
           transform="scale(0.26458333)" />
        <path
           style="opacity:1;fill:#00ffff;fill-opacity:1;fill-rule:evenodd;stroke-width:0.17857143"
           d="M 90.52022,381.74184 C 79.127363,381.369 69.10281,381.058 68.243435,381.05074 l -1.5625,-0.0132 v -5.01719 -5.01718 l 1.830357,0.11176 c 1.006696,0.0615 8.741071,0.39099 17.1875,0.73228 8.446428,0.34129 18.113118,0.74069 21.481538,0.88757 3.36842,0.14687 6.52244,0.26704 7.00893,0.26704 h 0.88453 v 4.73215 4.73214 l -1.91964,-0.0232 c -1.0558,-0.0127 -11.24107,-0.32824 -22.63393,-0.70107 z"
           id="path847"
           inkscape:connector-curvature="0"
           transform="scale(0.26458333)" />
        <path
           style="opacity:1;fill:#00ff00;fill-opacity:1;fill-rule:evenodd;stroke-width:0.17857143"
           d="m 91.502363,360.57627 c -10.459821,-0.32666 -20.32366,-0.64632 -21.919643,-0.71035 l -2.901785,-0.11642 v -4.71877 -4.71877 l 1.830357,0.10159 c 1.006696,0.0559 6.772321,0.30004 12.8125,0.54259 6.040178,0.24254 15.795677,0.64133 21.678888,0.88618 5.88321,0.24486 11.00598,0.4452 11.38393,0.4452 h 0.68718 v 4.46428 4.46429 l -2.27678,-0.0229 c -1.25224,-0.0126 -10.83483,-0.29021 -21.294647,-0.61687 z"
           id="path849"
           inkscape:connector-curvature="0"
           transform="scale(0.26458333)" />
        <path
           style="opacity:1;fill:#ff0000;fill-opacity:1;fill-rule:evenodd;stroke-width:0.17857143"
           d="m 104.89522,350.76163 c -2.79911,-0.12322 -12.54241,-0.52999 -21.651785,-0.90393 l -16.5625,-0.67989 v -5.24966 -5.24966 l 2.723214,0.11595 c 4.347261,0.1851 42.149981,1.35022 43.808291,1.35022 h 1.50421 v -0.51418 -0.51417 l -2.36607,-0.11257 c -1.30134,-0.0619 -7.75,-0.27842 -14.33036,-0.48112 -6.580357,-0.20271 -16.303571,-0.50326 -21.607142,-0.6679 l -9.642858,-0.29934 -0.04725,-5.50909 -0.04725,-5.50909 3.17225,0.11107 c 1.744737,0.0611 11.569571,0.27016 21.832964,0.46461 10.263396,0.19445 19.725446,0.40188 21.026786,0.46096 l 2.36607,0.10741 v 11.50108 c 0,11.43945 -0.002,11.49988 -0.35557,11.27901 -0.30556,-0.19082 -0.39489,-0.16592 -0.63513,0.17706 -0.2619,0.37392 -0.40011,0.39748 -2.18907,0.37319 -1.05023,-0.0143 -4.19969,-0.12674 -6.9988,-0.24996 z"
           id="path851"
           inkscape:connector-curvature="0"
           transform="scale(0.26458333)" />
        <path
           style="opacity:1;fill:#0000ff;fill-opacity:1;fill-rule:evenodd;stroke-width:0.17857143"
           d="m 91.502363,325.93826 c -10.066964,-0.2235 -19.770089,-0.41314 -21.5625,-0.42141 l -3.258928,-0.015 v -5 -5 h 24.196428 24.196427 v 5.44643 5.44643 l -2.63393,-0.025 c -1.44866,-0.0138 -10.87053,-0.20788 -20.937497,-0.43138 z"
           id="path853"
           inkscape:connector-curvature="0"
           transform="scale(0.26458333)" />
        <path
           style="opacity:1;fill:#0000ff;fill-opacity:1;fill-rule:evenodd;stroke-width:0.17857143"
           d="m 66.680935,298.77465 v -5.51805 l 20.491071,-0.40462 c 11.270089,-0.22254 22.158484,-0.45336 24.196424,-0.51293 l 3.70536,-0.10833 v 5.4588 5.4588 l -1.47321,0.10043 c -0.81027,0.0552 -10.35268,0.26308 -21.20536,0.46185 -10.852678,0.19878 -21.078125,0.41107 -22.723214,0.47176 l -2.991071,0.11035 z"
           id="path855"
           inkscape:connector-curvature="0"
           transform="scale(0.26458333)" />
        <path
           style="opacity:1;fill:#ff00ff;fill-opacity:1;fill-rule:evenodd;stroke-width:0.17857143"
           d="m 66.680935,402.01966 v -9.19643 l 0.758928,9.8e-4 c 0.417411,5.4e-4 6.0625,0.27698 12.544643,0.61431 6.482143,0.33734 16.848214,0.86421 23.035714,1.17083 6.1875,0.30662 11.4308,0.59421 11.65179,0.63909 0.3988,0.081 0.40178,0.10551 0.40178,3.30302 0,1.77178 -0.0603,3.18629 -0.13393,3.14335 -0.0737,-0.0429 -10.88741,-0.13642 -24.030557,-0.20775 l -23.896633,-0.12967 0.05735,0.59899 0.05735,0.599 23.928572,0.10316 c 13.160718,0.0567 23.948668,0.11701 23.973218,0.13393 0.0246,0.0169 0.0446,1.91916 0.0446,4.22719 v 4.19643 H 90.877363 66.680935 Z"
           id="path857"
           inkscape:connector-curvature="0"
           transform="scale(0.26458333)" />
        <path
           style="opacity:1;fill:#c83737;fill-opacity:1;fill-rule:evenodd;stroke-width:0.17857143"
           d="m 66.680935,285.16835 v -6.98797 h 24.196428 24.196427 v 6.4119 6.41191 l -1.65178,0.10206 c -0.90849,0.0561 -10.25,0.26459 -20.758932,0.46324 -10.508929,0.19864 -20.654018,0.41195 -22.544643,0.47401 l -3.4375,0.11283 z"
           id="path859"
           inkscape:connector-curvature="0"
           transform="scale(0.26458333)" />
        <path
           transform="matrix(0.26458333,0,0,0.26458333,10.205358,-142.875)"
           inkscape:connector-curvature="0"
           id="path930"
           d="m 28.323511,849.8791 v -3.87172 l 4.464286,-0.39686 c 2.455357,-0.21827 13.223214,-0.50856 23.928571,-0.64509 l 19.464286,-0.24822 v 4.5168 4.51681 H 52.252083 28.323511 Z"
           style="opacity:1;fill:#c87137;fill-opacity:1;fill-rule:evenodd;stroke-width:0.71428573" />
        <path
           transform="matrix(0.26458333,0,0,0.26458333,10.205358,-142.875)"
           inkscape:connector-curvature="0"
           id="path936"
           d="m 47.966368,910.49431 c -10.607142,-0.49295 -19.366071,-0.92618 -19.464285,-0.96274 -0.09821,-0.0366 -0.178572,-2.0167 -0.178572,-4.40031 0,-3.78688 0.157763,-4.28893 1.25,-3.97793 0.6875,0.19575 11.455357,0.57839 23.928572,0.85031 l 22.678571,0.4944 v 4.55496 4.55496 l -4.464286,-0.10868 c -2.455357,-0.0598 -13.142857,-0.51201 -23.75,-1.00497 z"
           style="opacity:1;fill:#ff6600;fill-opacity:1;fill-rule:evenodd;stroke-width:0.71428573" />
      </g>
    </g>
    <path
       sodipodi:type="star"
       style="opacity:1;fill:#c83737;fill-opacity:1;fill-rule:evenodd;stroke-width:0.26458332"
       id="path884"
       sodipodi:sides="10"
       sodipodi:cx="102.43154"
       sodipodi:cy="161.11756"
       sodipodi:r1="6.0269132"
       sodipodi:r2="5.7319345"
       sodipodi:arg1="0.85196633"
       sodipodi:arg2="1.1661256"
       inkscape:flatsided="true"
       inkscape:rounded="0"
       inkscape:randomized="0"
       d="m 106.40029,165.65327 -3.42399,1.46653 -3.632068,-0.82613 -2.452823,-2.80322 -0.33668,-3.70959 1.908062,-3.19902 3.423989,-1.46653 3.63207,0.82613 2.45282,2.80322 0.33668,3.70959 z"
       inkscape:transform-center-x="1.2238095e-006"
       inkscape:transform-center-y="-2.0155418e-006" />
    <path
       style="fill:none;stroke:#000000;stroke-width:0.26458332px;stroke-linecap:butt;stroke-linejoin:miter;stroke-opacity:1"
       d="m 107.97167,158.74466 40.38398,-28.81014 -0.37797,-0.75595"
       id="path886"
       inkscape:connector-curvature="0" />
    <path
       style="fill:none;stroke:#000000;stroke-width:0.26458332px;stroke-linecap:butt;stroke-linejoin:miter;stroke-opacity:1"
       d="m 108.30835,162.45425 40.23629,16.42819"
       id="path888"
       inkscape:connector-curvature="0" />
    <path
       style="fill:none;stroke:#000000;stroke-width:0.26458332px;stroke-linecap:butt;stroke-linejoin:miter;stroke-opacity:1"
       d="m 106.40029,165.65327 14.93007,31.75"
       id="path890"
       inkscape:connector-curvature="0" />
    <path
       style="fill:none;stroke:#000000;stroke-width:0.26458332px;stroke-linecap:butt;stroke-linejoin:miter;stroke-opacity:1"
       d="M 99.34423,166.29367 55.537746,181.31706"
       id="path892"
       inkscape:connector-curvature="0"
       sodipodi:nodetypes="cc" />
    <path
       style="fill:none;stroke:#000000;stroke-width:0.2660071px;stroke-linecap:butt;stroke-linejoin:miter;stroke-opacity:1"
       d="M 102.97626,167.11974 78.878943,196.48187"
       id="path894"
       inkscape:connector-curvature="0"
       sodipodi:nodetypes="cc" />
    <path
       style="fill:none;stroke:#000000;stroke-width:0.26458332px;stroke-linecap:butt;stroke-linejoin:miter;stroke-opacity:1"
       d="m 96.891408,163.49044 -43.596766,-3.6958"
       id="path896"
       inkscape:connector-curvature="0" />
    <path
       style="fill:none;stroke:#000000;stroke-width:0.26458332px;stroke-linecap:butt;stroke-linejoin:miter;stroke-opacity:1"
       d="M 98.462789,156.58184 73.894343,114.62649"
       id="path898"
       inkscape:connector-curvature="0" />
    <path
       style="fill:none;stroke:#000000;stroke-width:0.26458332px;stroke-linecap:butt;stroke-linejoin:miter;stroke-opacity:1"
       d="m 96.554728,159.78085 -46.472885,-27.2005 0.566966,-0.18898"
       id="path900"
       inkscape:connector-curvature="0" />
    <path
       style="fill:none;stroke:#000000;stroke-width:0.26458332px;stroke-linecap:butt;stroke-linejoin:miter;stroke-opacity:1"
       d="m 105.51885,155.94143 34.52133,-46.98459"
       id="path902"
       inkscape:connector-curvature="0" />
    <path
       style="fill:none;stroke:#000000;stroke-width:0.26458332px;stroke-linecap:butt;stroke-linejoin:miter;stroke-opacity:1"
       d="m 101.88678,155.11531 -0.40017,-53.529"
       id="path904"
       inkscape:connector-curvature="0" />
    <path
       sodipodi:type="star"
       style="opacity:1;fill:#ff0000;fill-opacity:1;fill-rule:evenodd;stroke-width:0.26458332"
       id="path908"
       sodipodi:sides="10"
       sodipodi:cx="53.958767"
       sodipodi:cy="159.54302"
       sodipodi:r1="7.2335777"
       sodipodi:r2="1.9553518"
       sodipodi:arg1="0.34653855"
       sodipodi:arg2="0.66069782"
       inkscape:flatsided="false"
       inkscape:rounded="0"
       inkscape:randomized="0"
       d="m 60.762337,161.99986 -5.259694,-1.25691 2.516232,4.78673 -3.516391,-4.10843 -0.777894,5.35155 -0.429947,-5.39067 -3.774891,3.87226 2.820723,-4.61386 -5.330008,0.9139 4.993973,-2.07472 -4.849244,-2.39354 5.259695,1.25691 -2.516232,-4.78673 3.516391,4.10843 0.777894,-5.35155 0.429947,5.39067 3.774891,-3.87226 -2.820723,4.61386 5.330008,-0.9139 -4.993973,2.07472 z"
       inkscape:transform-center-y="-2.8348234"
       inkscape:transform-center-x="2.4568452" />
    <path
       sodipodi:type="star"
       style="opacity:1;fill:#0000ff;fill-opacity:1;fill-rule:evenodd;stroke-width:0.26458332"
       id="path910"
       sodipodi:sides="10"
       sodipodi:cx="49.24852"
       sodipodi:cy="131.34271"
       sodipodi:r1="5.5196171"
       sodipodi:r2="1.4920409"
       sodipodi:arg1="0.66404639"
       sodipodi:arg2="0.97820565"
       inkscape:flatsided="false"
       inkscape:rounded="0"
       inkscape:randomized="0"
       d="m 53.595245,134.7445 -3.513403,-2.16414 0.683733,4.0694 -1.570351,-3.81596 -1.838783,3.6941 0.972522,-4.0102 -3.658946,1.90778 3.143924,-2.67268 -4.081516,-0.60725 4.114455,-0.3143 -2.945085,-2.89032 3.513402,2.16414 -0.683732,-4.0694 1.570351,3.81595 1.838783,-3.6941 -0.972522,4.0102 3.658946,-1.90778 -3.143924,2.67269 4.081516,0.60724 -4.114455,0.3143 z"
       inkscape:transform-center-y="-1.6250656e-006" />
    <path
       sodipodi:type="star"
       style="opacity:1;fill:#ff6600;fill-opacity:1;fill-rule:evenodd;stroke-width:0.26458332"
       id="path912"
       sodipodi:sides="10"
       sodipodi:cx="72.881237"
       sodipodi:cy="113.11557"
       sodipodi:r1="6.7296743"
       sodipodi:r2="1.8191386"
       sodipodi:arg1="0.6659697"
       sodipodi:arg2="0.98012896"
       inkscape:flatsided="false"
       inkscape:rounded="0"
       inkscape:randomized="0"
       d="m 78.172898,117.27331 -4.278558,-2.64682 0.824081,4.96312 -1.905664,-4.65619 -2.250556,4.49963 1.195128,-4.88706 -4.465556,2.31744 3.839422,-3.25124 -4.974867,-0.74994 5.017188,-0.37355 -3.583947,-3.53087 4.278558,2.64682 -0.824082,-4.96312 1.905665,4.65619 2.250555,-4.49963 -1.195128,4.88706 4.465556,-2.31744 -3.839422,3.25124 4.974867,0.74994 -5.017188,0.37355 z"
       inkscape:transform-center-y="-1.3917322e-006" />
    <path
       sodipodi:type="star"
       style="opacity:1;fill:#00ff00;fill-opacity:1;fill-rule:evenodd;stroke-width:0.26458332"
       id="path914"
       sodipodi:sides="10"
       sodipodi:cx="102.33817"
       sodipodi:cy="103.09846"
       sodipodi:r1="6.4200368"
       sodipodi:r2="1.7354387"
       sodipodi:arg1="0.74375537"
       sodipodi:arg2="1.0579146"
       inkscape:flatsided="false"
       inkscape:rounded="0"
       inkscape:randomized="0"
       d="m 107.06288,107.44518 -3.87314,-2.83458 0.41586,4.78155 -1.46732,-4.5698 -2.474076,4.11278 1.498976,-4.55951 -4.419004,1.87309 3.892714,-2.80765 -4.676026,-1.08207 4.799566,0.0166 -3.146962,-3.623909 3.873142,2.834579 -0.41586,-4.781541 1.46731,4.569801 2.47408,-4.112787 -1.49898,4.559507 4.41901,-1.873082 -3.89271,2.807642 4.67602,1.08207 -4.79956,-0.0166 z"
       inkscape:transform-center-x="1.2190476e-006"
       inkscape:transform-center-y="-1.2250656e-006" />
    <path
       sodipodi:type="star"
       style="opacity:1;fill:#00ffff;fill-opacity:1;fill-rule:evenodd;stroke-width:0.26458332"
       id="path916"
       sodipodi:sides="10"
       sodipodi:cx="138.35433"
       sodipodi:cy="110.43835"
       sodipodi:r1="8.3025799"
       sodipodi:r2="2.2443204"
       sodipodi:arg1="0.849825"
       sodipodi:arg2="1.1639843"
       inkscape:flatsided="false"
       inkscape:rounded="0"
       inkscape:randomized="0"
       d="m 143.83498,116.67495 -4.59261,-4.17545 -0.11989,6.20582 -1.26123,-6.07749 -3.74468,4.95015 2.5519,-5.65812 -5.93913,1.80368 5.39029,-3.07755 -5.86503,-2.03172 6.16977,0.67855 -3.5507,-5.09108 4.59261,4.17545 0.11989,-6.20581 1.26123,6.07748 3.74467,-4.95014 -2.55189,5.65812 5.93912,-1.80369 -5.39028,3.07755 5.86503,2.03172 -6.16977,-0.67854 z"
       inkscape:transform-center-x="1.7190476e-006"
       inkscape:transform-center-y="-1.3464942e-006" />
    <path
       sodipodi:type="star"
       style="opacity:1;fill:#000080;fill-opacity:1;fill-rule:evenodd;stroke-width:0.26458332"
       id="path918"
       sodipodi:sides="10"
       sodipodi:cx="147.97768"
       sodipodi:cy="129.17857"
       sodipodi:r1="7.2606854"
       sodipodi:r2="1.9626795"
       sodipodi:arg1="0.89605563"
       sodipodi:arg2="1.2102149"
       inkscape:flatsided="false"
       inkscape:rounded="0"
       inkscape:randomized="0"
       d="m 152.51339,134.84822 -3.84324,-3.83318 -0.35554,5.4164 -0.85616,-5.36011 -3.47131,4.17298 2.45794,-4.83966 -5.26117,1.33563 4.8332,-2.47063 -5.04144,-2.01189 5.36234,0.84211 -2.89605,-4.59094 3.84325,3.83318 0.35553,-5.4164 0.85616,5.36011 3.47132,-4.17298 -2.45795,4.83966 5.26117,-1.33563 -4.8332,2.47062 5.04144,2.0119 -5.36234,-0.84211 z"
       inkscape:transform-center-x="1.8642857e-006"
       inkscape:transform-center-y="-1.6274465e-006" />
    <path
       sodipodi:type="star"
       style="opacity:1;fill:#999999;fill-opacity:1;fill-rule:evenodd;stroke-width:0.26458332"
       id="path920"
       sodipodi:sides="10"
       sodipodi:cx="145.88814"
       sodipodi:cy="179.85308"
       sodipodi:r1="10.462842"
       sodipodi:r2="2.8282738"
       sodipodi:arg1="1.2204821"
       sodipodi:arg2="1.5346414"
       inkscape:flatsided="false"
       inkscape:rounded="0"
       inkscape:randomized="0"
       d="m 149.47891,189.68045 -3.48854,-7.00095 -2.97362,7.23469 1.29277,-7.7144 -6.65817,4.10514 5.58029,-5.48121 -7.79951,-0.59245 7.73633,-1.15438 -5.96171,-5.06373 6.93735,3.61338 -1.84674,-7.60085 3.48854,7.00096 2.97363,-7.2347 -1.29277,7.71441 6.65816,-4.10514 -5.58028,5.48121 7.7995,0.59244 -7.73632,1.15439 5.9617,5.06373 -6.93734,-3.61338 z"
       inkscape:transform-center-x="1.8380952e-006"
       inkscape:transform-center-y="-2.203637e-006" />
    <path
       sodipodi:type="star"
       style="opacity:1;fill:#ff00ff;fill-opacity:1;fill-rule:evenodd;stroke-width:0.26458332"
       id="path922"
       sodipodi:sides="10"
       sodipodi:cx="119.15364"
       sodipodi:cy="195.83656"
       sodipodi:r1="9.9214249"
       sodipodi:r2="2.6819198"
       sodipodi:arg1="0.30970294"
       sodipodi:arg2="0.62386221"
       inkscape:flatsided="false"
       inkscape:rounded="0"
       inkscape:randomized="0"
       d="m 128.60305,198.86037 -7.27269,-1.4571 3.69066,6.43383 -5.02726,-5.4536 -0.79591,7.37439 -0.86159,-7.367 -4.97846,5.49818 3.63317,-6.46646 -7.25941,1.52186 6.74019,-3.09596 -6.76751,-3.03576 7.27268,1.4571 -3.69066,-6.43382 5.02726,5.45359 0.79591,-7.37438 0.86159,7.367 4.97846,-5.49819 -3.63317,6.46647 7.25941,-1.52186 -6.74019,3.09595 z"
       inkscape:transform-center-x="1.4666666e-006"
       inkscape:transform-center-y="-2.4679227e-006" />
    <path
       sodipodi:type="star"
       style="opacity:1;fill:#808000;fill-opacity:1;fill-rule:evenodd;stroke-width:0.26458332"
       id="path926"
       sodipodi:sides="10"
       sodipodi:cx="51.609522"
       sodipodi:cy="182.37811"
       sodipodi:r1="15.052756"
       sodipodi:r2="4.0690007"
       sodipodi:arg1="0.67866249"
       sodipodi:arg2="0.99282176"
       inkscape:flatsided="false"
       inkscape:rounded="0"
       inkscape:randomized="0"
       d="m 63.326786,191.82752 -9.494251,-6.04133 1.702232,11.12389 -4.130006,-10.46812 -5.161322,9.99996 2.81176,-10.89644 -10.053426,5.05638 8.679529,-7.16269 -11.105463,-1.81855 11.232013,-0.69305 -7.91559,-7.99886 9.49425,6.04133 -1.702231,-11.12389 4.130006,10.46812 5.161322,-9.99996 -2.81176,10.89644 10.053426,-5.05639 -8.679529,7.1627 11.105462,1.81855 -11.232013,0.69304 z"
       inkscape:transform-center-y="-2.4703037e-006" />
    <path
       sodipodi:type="star"
       style="opacity:1;fill:#ff2a2a;fill-opacity:1;fill-rule:evenodd;stroke-width:0.26458332"
       id="path928"
       sodipodi:sides="10"
       sodipodi:cx="78.490801"
       sodipodi:cy="199.16343"
       sodipodi:r1="10.023492"
       sodipodi:r2="2.7095101"
       sodipodi:arg1="0.77206576"
       sodipodi:arg2="1.086225"
       inkscape:flatsided="false"
       inkscape:rounded="0"
       inkscape:randomized="0"
       d="m 85.672341,206.15599 -5.919373,-4.59498 0.437699,7.48073 -2.088013,-7.19674 -4.042953,6.30931 2.540898,-7.04959 -6.979335,2.72795 6.199272,-4.20973 -7.249848,-1.8954 7.489735,0.2381 -4.751166,-5.79476 5.919373,4.59498 -0.437699,-7.48072 2.088012,7.19673 4.042953,-6.3093 -2.540897,7.04958 6.979335,-2.72795 -6.199272,4.20974 7.249848,1.89539 -7.489735,-0.2381 z"
       inkscape:transform-center-x="1.2023809e-006"
       inkscape:transform-center-y="-2.4488751e-006" />
  </g>
</svg>
